<svg width="51" height="11" viewBox="0 0 51 11" fill="none" xmlns="http://www.w3.org/2000/svg">
<path d="M0.758523 10V1.27273H2.60369V8.47869H6.34517V10H0.758523ZM11.7305 7.21307V3.45455H13.5458V10H11.8029V8.81108H11.7347C11.587 9.1946 11.3413 9.50284 10.9975 9.7358C10.6566 9.96875 10.2404 10.0852 9.74893 10.0852C9.31143 10.0852 8.92649 9.9858 8.59411 9.78693C8.26172 9.58807 8.00178 9.3054 7.81428 8.93892C7.62962 8.57244 7.53587 8.13352 7.53303 7.62216V3.45455H9.34837V7.2983C9.35121 7.68466 9.4549 7.99006 9.65945 8.21449C9.86399 8.43892 10.1381 8.55114 10.4819 8.55114C10.7006 8.55114 10.9052 8.50142 11.0955 8.40199C11.2859 8.29972 11.4393 8.14915 11.5558 7.95028C11.6751 7.75142 11.7333 7.50568 11.7305 7.21307ZM14.9979 10V3.45455H16.8132V10H14.9979ZM15.9098 2.6108C15.6399 2.6108 15.4084 2.52131 15.2152 2.34233C15.0249 2.16051 14.9297 1.94318 14.9297 1.69034C14.9297 1.44034 15.0249 1.22585 15.2152 1.04688C15.4084 0.865057 15.6399 0.774147 15.9098 0.774147C16.1797 0.774147 16.4098 0.865057 16.6001 1.04688C16.7933 1.22585 16.8899 1.44034 16.8899 1.69034C16.8899 1.94318 16.7933 2.16051 16.6001 2.34233C16.4098 2.52131 16.1797 2.6108 15.9098 2.6108ZM18.2333 10V8.91761L21.4379 4.95028V4.90341H18.3441V3.45455H23.6239V4.63494L20.6154 8.50426V8.55114H23.7347V10H18.2333ZM27.9343 10V1.27273H29.7795V8.47869H33.521V10H27.9343ZM37.6918 10.1278C37.0185 10.1278 36.4389 9.99148 35.9531 9.71875C35.4702 9.44318 35.098 9.05398 34.8366 8.55114C34.5753 8.04545 34.4446 7.44744 34.4446 6.7571C34.4446 6.08381 34.5753 5.4929 34.8366 4.98438C35.098 4.47585 35.4659 4.07955 35.9403 3.79545C36.4176 3.51136 36.9773 3.36932 37.6193 3.36932C38.0511 3.36932 38.4531 3.43892 38.8253 3.57812C39.2003 3.71449 39.527 3.92045 39.8054 4.19602C40.0866 4.47159 40.3054 4.81818 40.4616 5.2358C40.6179 5.65057 40.696 6.13636 40.696 6.69318V7.19176H35.169V6.06676H38.9872C38.9872 5.8054 38.9304 5.57386 38.8168 5.37216C38.7031 5.17045 38.5455 5.01278 38.3438 4.89915C38.1449 4.78267 37.9134 4.72443 37.6491 4.72443C37.3736 4.72443 37.1293 4.78835 36.9162 4.91619C36.706 5.04119 36.5412 5.21023 36.4219 5.4233C36.3026 5.63352 36.2415 5.8679 36.2386 6.12642V7.19602C36.2386 7.51989 36.2983 7.79972 36.4176 8.03551C36.5398 8.27131 36.7116 8.45312 36.9332 8.58097C37.1548 8.70881 37.4176 8.77273 37.7216 8.77273C37.9233 8.77273 38.108 8.74432 38.2756 8.6875C38.4432 8.63068 38.5866 8.54545 38.706 8.43182C38.8253 8.31818 38.9162 8.17898 38.9787 8.0142L40.6577 8.125C40.5724 8.52841 40.3977 8.88068 40.1335 9.18182C39.8722 9.48011 39.5341 9.71307 39.1193 9.88068C38.7074 10.0455 38.2315 10.1278 37.6918 10.1278ZM43.7472 10.1236C43.3295 10.1236 42.9574 10.0511 42.6307 9.90625C42.304 9.75852 42.0455 9.54119 41.8551 9.25426C41.6676 8.96449 41.5739 8.60369 41.5739 8.17188C41.5739 7.80824 41.6406 7.50284 41.7741 7.25568C41.9077 7.00852 42.0895 6.80966 42.3196 6.65909C42.5497 6.50852 42.8111 6.39489 43.1037 6.31818C43.3991 6.24148 43.7088 6.1875 44.0327 6.15625C44.4134 6.11648 44.7202 6.07955 44.9531 6.04545C45.1861 6.00852 45.3551 5.95455 45.4602 5.88352C45.5653 5.8125 45.6179 5.70739 45.6179 5.56818V5.54261C45.6179 5.27273 45.5327 5.06392 45.3622 4.91619C45.1946 4.76847 44.956 4.6946 44.6463 4.6946C44.3196 4.6946 44.0597 4.76705 43.8665 4.91193C43.6733 5.05398 43.5455 5.23295 43.483 5.44886L41.804 5.3125C41.8892 4.91477 42.0568 4.57102 42.3068 4.28125C42.5568 3.98864 42.8793 3.7642 43.2741 3.60795C43.6719 3.44886 44.1321 3.36932 44.6548 3.36932C45.0185 3.36932 45.3665 3.41193 45.6989 3.49716C46.0341 3.58239 46.331 3.71449 46.5895 3.89347C46.8509 4.07244 47.0568 4.30256 47.2074 4.58381C47.358 4.86222 47.4332 5.19602 47.4332 5.58523V10H45.7116V9.09233H45.6605C45.5554 9.29688 45.4148 9.47727 45.2386 9.63352C45.0625 9.78693 44.8509 9.90767 44.6037 9.99574C44.3565 10.081 44.071 10.1236 43.7472 10.1236ZM44.267 8.87074C44.5341 8.87074 44.7699 8.81818 44.9744 8.71307C45.179 8.60511 45.3395 8.46023 45.456 8.27841C45.5724 8.09659 45.6307 7.89062 45.6307 7.66051V6.96591C45.5739 7.00284 45.4957 7.03693 45.3963 7.06818C45.2997 7.09659 45.1903 7.12358 45.0682 7.14915C44.946 7.17187 44.8239 7.19318 44.7017 7.21307C44.5795 7.23011 44.4688 7.24574 44.3693 7.25994C44.1563 7.29119 43.9702 7.34091 43.8111 7.40909C43.652 7.47727 43.5284 7.5696 43.4403 7.68608C43.3523 7.79972 43.3082 7.94176 43.3082 8.11222C43.3082 8.35938 43.3977 8.5483 43.5767 8.67898C43.7585 8.80682 43.9886 8.87074 44.267 8.87074ZM50.657 1.27273V10H48.8416V1.27273H50.657Z" fill="#1f2328"/>
</svg>
